<svg xmlns="http://www.w3.org/2000/svg" viewBox="0 0 24 24" fill="none">
  <g>
    <path d="M12 6.3 13.2 5l1.7.6.4 1.7 1.6.9 1.5-.7 1.2 1.2-.7 1.5.9 1.6 1.7.4.6 1.7L20.7 15l-1.5-.7-1.6.9-.4 1.7-1.7.6L12 16.2l-1.3 1.3-1.7-.6-.4-1.7-1.6-.9-1.5.7-1.2-1.2.7-1.5-.9-1.6-1.7-.4-.6-1.7L3.3 9l1.5.7 1.6-.9.4-1.7 1.7-.6L12 6.3Z" fill="#EEF2FF" stroke="#4F46E5" stroke-width="1.3"/>
    <circle cx="12" cy="11.2" r="2.1" fill="#fff" stroke="#06B6D4" stroke-width="1.3"/>
    <animateTransform attributeName="transform" type="rotate" values="0 12 11.2;360 12 11.2" dur="5s" repeatCount="indefinite"/>
  </g>
</svg>